<svg xmlns="http://www.w3.org/2000/svg" width="1200" height="630" viewBox="0 0 1200 630" role="img" aria-labelledby="title description">
  <title id="title">Yoann Leny — Data and AI leadership</title>
  <desc id="description">A recruiter-first introduction to Yoann Leny, a data and AI operator, architect, and builder.</desc>
  <rect width="1200" height="630" fill="#FFFFFF"/>
  <rect x="58" y="54" width="1084" height="522" rx="38" fill="#F3F3F1"/>
  <rect x="742" y="54" width="400" height="522" rx="38" fill="#050505"/>
  <rect x="92" y="91" width="134" height="12" rx="6" fill="#087A55"/>
  <rect x="244" y="91" width="46" height="12" rx="6" fill="#E7615F"/>
  <rect x="308" y="91" width="74" height="12" rx="6" fill="#9151F6"/>
  <text x="92" y="151" fill="#24262B" font-family="Arial, sans-serif" font-size="18" font-weight="700" letter-spacing="2.5">VP / HEAD OF DATA &amp; AI</text>
  <text x="92" y="252" fill="#050505" font-family="Arial, sans-serif" font-size="78" font-weight="800" letter-spacing="-4.5">Yoann Leny.</text>
  <text x="92" y="328" fill="#24262B" font-family="Arial, sans-serif" font-size="43" font-weight="700" letter-spacing="-2">I build systems</text>
  <text x="92" y="378" fill="#9151F6" font-family="Arial, sans-serif" font-size="43" font-weight="700" letter-spacing="-2">leaders trust.</text>
  <text x="92" y="505" fill="#24262B" font-family="monospace" font-size="17" font-weight="700" letter-spacing="1.4">YOANNLENY.COM  /  BORDEAUX · EUROPE</text>
  <rect x="790" y="103" width="304" height="86" rx="22" fill="#24262B"/>
  <text x="820" y="137" fill="#F3F3F1" font-family="monospace" font-size="14" font-weight="700" letter-spacing="1.5">RECRUITER BRIEF</text>
  <text x="820" y="167" fill="#FFFFFF" font-family="Arial, sans-serif" font-size="22" font-weight="700">Operator · Architect · Builder</text>
  <rect x="790" y="215" width="304" height="104" rx="22" fill="#FFFFFF"/>
  <text x="820" y="251" fill="#24262B" font-family="monospace" font-size="13" font-weight="700" letter-spacing="1.4">PROVEN SCALE</text>
  <text x="820" y="292" fill="#050505" font-family="Arial, sans-serif" font-size="31" font-weight="800">40+ · $13M+ · 3 regions</text>
  <rect x="790" y="345" width="93" height="126" rx="22" fill="#9151F6"/>
  <rect x="895" y="345" width="93" height="126" rx="22" fill="#E7615F"/>
  <rect x="1001" y="345" width="93" height="126" rx="22" fill="#087A55"/>
  <text x="812" y="504" fill="#F3F3F1" font-family="monospace" font-size="13" font-weight="700" letter-spacing="1.5">DATA · AI · OPERATIONS</text>
</svg>
